name Walk7.mot
datacolumns 19
datarows 25
range 1.58600000 1.61000000
endheader

                time	   L_ground_force_vx	   L_ground_force_vy	   L_ground_force_vz	   L_ground_force_px	   L_ground_force_py	   L_ground_force_pz	   R_ground_force_vx	   R_ground_force_vy	   R_ground_force_vz	   R_ground_force_px	   R_ground_force_py	   R_ground_force_pz	   L_ground_torque_x	   L_ground_torque_y	   L_ground_torque_z	   R_ground_torque_x	   R_ground_torque_y	   R_ground_torque_z	
          1.58600000	          3.12319640	         41.26485829	          0.25723715	          0.00219384	          0.00000000	          0.00010368	          0.00000000	          0.00000000	          0.00000000	          0.00000000	          0.00000000	          0.00000000	          0.00000000	         -0.05280725	          0.00000000	          0.00000000	         -0.00000000	          0.00000000	
          1.58700000	          3.34717144	         47.33696172	          0.44504023	         -0.01680651	          0.00000000	         -0.00289395	          0.00000000	          0.00000000	          0.00000000	          0.00000000	          0.00000000	          0.00000000	          0.00000000	         -0.05936080	          0.00000000	          0.00000000	         -0.00000000	          0.00000000	
          1.58800000	          3.54191727	         53.54336421	          0.62733849	         -0.03573108	          0.00000000	         -0.00587850	          0.00000000	          0.00000000	          0.00000000	          0.00000000	          0.00000000	          0.00000000	          0.00000000	         -0.06583236	          0.00000000	          0.00000000	         -0.00000000	          0.00000000	
          1.58900000	          3.70448850	         59.87469844	          0.80319695	         -0.05451544	          0.00000000	         -0.00883978	          0.00000000	          0.00000000	          0.00000000	          0.00000000	          0.00000000	          0.00000000	          0.00000000	         -0.07219457	          0.00000000	          0.00000000	         -0.00000000	          0.00000000	
          1.59000000	          3.83192180	         66.32098418	          0.97169468	         -0.07309929	          0.00000000	         -0.01176821	          0.00000000	          0.00000000	          0.00000000	          0.00000000	          0.00000000	          0.00000000	          0.00000000	         -0.07841948	          0.00000000	          0.00000000	         -0.00000000	          0.00000000	
          1.59100000	          3.92125977	         72.87169259	          1.13193793	         -0.09142784	          0.00000000	         -0.01465505	          0.00000000	          0.00000000	          0.00000000	          0.00000000	          0.00000000	          0.00000000	          0.00000000	         -0.08447880	          0.00000000	          0.00000000	         -0.00000000	          0.00000000	
          1.59200000	          3.96957431	         79.51580943	          1.28307166	         -0.10945196	          0.00000000	         -0.01749244	         -0.00000000	          0.00000000	          0.00000000	          0.00000000	          0.00000000	          0.00000000	          0.00000000	         -0.09034417	          0.00000000	          0.00000000	         -0.00000000	          0.00000000	
          1.59300000	          3.97399137	         86.24191222	          1.42429125	         -0.12712788	          0.00000000	         -0.02027334	         -0.00000000	          0.00000000	          0.00000000	          0.00000000	          0.00000000	          0.00000000	          0.00000000	         -0.09598739	          0.00000000	          0.00000000	         -0.00000000	          0.00000000	
          1.59400000	          3.93171938	         93.03827686	          1.55485626	         -0.14441689	          0.00000000	         -0.02299151	         -0.00000000	          0.00000000	          0.00000000	          0.00000000	          0.00000000	          0.00000000	          0.00000000	         -0.10138051	          0.00000000	          0.00000000	         -0.00000000	          0.00000000	
          1.59500000	          3.84008219	         99.89301784	          1.67410682	         -0.16128509	          0.00000000	         -0.02564148	         -0.00000000	          0.00000000	          0.00000000	          0.00000000	          0.00000000	          0.00000000	          0.00000000	         -0.10649584	          0.00000000	          0.00000000	         -0.00000000	          0.00000000	
          1.59600000	          3.69655720	        106.79425955	          1.78148253	         -0.17770308	          0.00000000	         -0.02821852	         -0.00000000	          0.00000000	          0.00000000	          0.00000000	          0.00000000	          0.00000000	          0.00000000	         -0.11130584	          0.00000000	          0.00000000	         -0.00000000	          0.00000000	
          1.59700000	          3.49881830	        113.73032783	          1.87654259	         -0.19364570	          0.00000000	         -0.03071857	         -0.00000000	          0.00000000	          0.00000000	          0.00000000	          0.00000000	          0.00000000	          0.00000000	         -0.11578295	          0.00000000	          0.00000000	         -0.00000000	          0.00000000	
          1.59800000	          3.24478213	        120.68994451	          1.95898539	         -0.20909174	          0.00000000	         -0.03313825	         -0.00000000	          0.00000000	          0.00000000	          0.00000000	          0.00000000	          0.00000000	          0.00000000	         -0.11989936	          0.00000000	          0.00000000	         -0.00000000	          0.00000000	
          1.59900000	          2.93265481	        127.66240496	          2.02866514	         -0.22402370	          0.00000000	         -0.03547477	         -0.00000000	          0.00000000	          0.00000000	          0.00000000	          0.00000000	          0.00000000	          0.00000000	         -0.12362678	          0.00000000	          0.00000000	         -0.00000000	          0.00000000	
          1.60000000	          2.56097608	        134.63772038	          2.08560347	         -0.23842753	          0.00000000	         -0.03772594	         -0.00000000	          0.00000000	          0.00000000	          0.00000000	          0.00000000	          0.00000000	          0.00000000	         -0.12693635	          0.00000000	          0.00000000	         -0.00000000	          0.00000000	
          1.60100000	          2.12865736	        141.60671286	          2.12999436	         -0.25229238	          0.00000000	         -0.03989008	         -0.00000000	          0.00000000	          0.00000000	          0.00000000	          0.00000000	          0.00000000	          0.00000000	         -0.12979863	          0.00000000	          0.00000000	         -0.00000000	          0.00000000	
          1.60200000	          1.63501131	        148.56105945	          2.16220201	         -0.26561042	          0.00000000	         -0.04196603	         -0.00000000	          0.00000000	          0.00000000	          0.00000000	          0.00000000	          0.00000000	          0.00000000	         -0.13218372	          0.00000000	          0.00000000	         -0.00000000	          0.00000000	
          1.60300000	          1.07977134	        155.49328903	          2.18275214	         -0.27837653	          0.00000000	         -0.04395309	         -0.00000000	          0.00000000	          0.00000000	          0.00000000	          0.00000000	          0.00000000	          0.00000000	         -0.13406171	          0.00000000	          0.00000000	         -0.00000000	          0.00000000	
          1.60400000	          0.46310080	        162.39674130	          2.19231819	         -0.29058821	          0.00000000	         -0.04585099	         -0.00000000	          0.00000000	          0.00000000	          0.00000000	          0.00000000	          0.00000000	          0.00000000	         -0.13540321	          0.00000000	          0.00000000	         -0.00000000	          0.00000000	
          1.60500000	         -0.21440723	        169.26549892	          2.19170401	         -0.30224526	          0.00000000	         -0.04765985	         -0.00000000	          0.00000000	          0.00000000	          0.00000000	          0.00000000	          0.00000000	          0.00000000	         -0.13617991	          0.00000000	          0.00000000	         -0.00000000	          0.00000000	
          1.60600000	         -0.95173822	        176.09430412	          2.18182487	         -0.31334965	          0.00000000	         -0.04938019	         -0.00000000	          0.00000000	          0.00000000	          0.00000000	          0.00000000	          0.00000000	          0.00000000	         -0.13636526	          0.00000000	          0.00000000	         -0.00000000	          0.00000000	
          1.60700000	         -1.74747042	        182.87846883	          2.16368777	         -0.32390531	          0.00000000	         -0.05101283	         -0.00000000	          0.00000000	          0.00000000	          0.00000000	          0.00000000	          0.00000000	          0.00000000	         -0.13593499	          0.00000000	          0.00000000	         -0.00000000	          0.00000000	
          1.60800000	         -2.59979314	        189.61378566	          2.13837213	         -0.33391795	          0.00000000	         -0.05255891	         -0.00000000	          0.00000000	          0.00000000	          0.00000000	          0.00000000	          0.00000000	          0.00000000	         -0.13486755	          0.00000000	          0.00000000	         -0.00000000	          0.00000000	
          1.60900000	         -3.50652730	        196.29644422	          2.10701140	         -0.34339487	          0.00000000	         -0.05401984	         -0.00000000	          0.00000000	          0.00000000	          0.00000000	          0.00000000	          0.00000000	          0.00000000	         -0.13314431	          0.00000000	          0.00000000	         -0.00000000	          0.00000000	
          1.61000000	         -4.46514684	        202.92295619	          2.07077585	         -0.35234481	          0.00000000	         -0.05539726	         -0.00000000	          0.00000000	          0.00000000	          0.00000000	          0.00000000	          0.00000000	          0.00000000	         -0.13074970	          0.00000000	          0.00000000	         -0.00000000	          0.00000000	
